<?xml version="1.0" standalone="no"?><!DOCTYPE svg PUBLIC "-//W3C//DTD SVG 1.1//EN" "http://www.w3.org/Graphics/SVG/1.1/DTD/svg11.dtd"><svg t="1574653862447" class="icon" viewBox="0 0 1024 1024" version="1.1" xmlns="http://www.w3.org/2000/svg" p-id="1933" xmlns:xlink="http://www.w3.org/1999/xlink" width="18" height="18"><defs><style type="text/css"></style></defs><path d="M937.7 492.7c31.4-132.1 20.2-244.2 13.5-311.2l-0.6-6.4c-0.1-2-2-6.1-3.6-7.9-4.5-0.4-9.4-2-14.5-3.8-2.9-1-7.7-2.6-9.3-2.6-45.2 6.6-85.2 6.6-132.1-0.1-39.5-11.2-95.6-30.4-147.8-60.2-58.9-36.8-97.7-71-120-93.3-3.5-2-19-2-23 0.4-21.8 21.9-60.6 56-119.1 92.6-52.6 30.1-108.7 49.3-146.6 60.1-47.5 13.6-94.4 13.7-135.6 0.5-8.7 0.1-14 1.1-15.9 3-3.2 3.2-9.1 9.1-9.6 11.5l-0.6 6.1c-6.7 67-18 179.2 13.3 310.8 50.4 245.5 190.1 422.4 415.3 526.1h21c230.3-103.1 369.9-280 415.2-525.6z m-421 482.9l-5 2.2-4.9-2.4C297.7 874.2 168.2 708.9 121.9 484.2 97 351.6 105.5 248 108.7 219.4l1.4-12.4 12.3 2c37.4 6.2 81.6-0.1 120.1-6.5 63.7-16 116-36.9 158.9-63.6 30.9-22.1 56.7-42 77.5-57.9 9.5-7.3 18.1-13.9 26.1-19.9l7.1-5.3 7.1 5.3c8.1 6.1 16.8 13.3 26.2 21.3 21.6 18.1 46.1 38.6 77 56.3 43.2 27 95.5 47.9 160.2 64.1 37.6 6.3 81.8 12.5 119.2 6.4l12.3-2 1.4 12.4c3.2 28.6 11.6 132.2-13.2 264.5v0.1c-47.1 234.7-176.8 400-385.6 491.4z" p-id="1934" fill="#036EB8"></path><path d="M523.8 1024l-24.7-0.5c-227-104.6-367.9-283-418.6-530.2C49 360.9 60.4 248.1 67.2 180.8l0.5-6c0.8-3.8 3.6-7.4 11.3-15.1 3.1-3.1 9.1-4.6 19.9-4.7h0.9l0.9 0.3c40.1 12.9 85.8 12.7 132.3-0.5 37.6-10.8 93.3-29.8 145.3-59.6 58-36.2 96.1-69.9 117.9-91.7 7-4.5 24.8-4.3 29.9-1.3l1.2 0.9c22.1 22.1 60.7 56.1 119 92.5 51.9 29.6 108.2 48.7 146.3 59.5 45.6 6.4 84.7 6.5 129.7 0 3 0 5.7 0.8 12 2.9 4.8 1.6 9.3 3.1 13.2 3.5l2.4 0.2 1.5 1.8c1.9 2.2 4.7 7.6 4.9 11.3l0.6 6.3c6.7 67.3 18 179.9-13.6 312.9-45.7 247.6-186.4 425.7-418.4 529.6l-1.1 0.4z m-21-11.5h18.5C749 910.1 887.2 734.9 932 491.7l0.1-0.3c31.2-131.2 20-242.7 13.3-309.3l-0.6-6.5c-0.1-0.6-0.7-2-1.3-3.1-4.2-0.7-8.5-2.2-12.9-3.6-2.4-0.8-6.3-2.2-8-2.4-45 6.7-85 6.7-132.5-0.2-39.4-11.1-96.7-30.5-149.8-60.9-58.6-36.7-97.7-70.9-120.4-93.4-3.3-0.9-14.2-0.7-16.7 0.5-21.1 21.4-59.9 55.6-119 92.5-53.2 30.4-109.9 49.8-148.1 60.7-48.3 13.8-96 14-138.1 0.7-9.1 0.2-11.1 1.4-11.2 1.5-6.2 6.1-7.7 8.2-8 9l-0.3 4.9c-6.7 66.7-17.9 178.3 13.2 308.9 50 243.3 188.3 418.8 411.1 521.8z m8.8-28.4l-7.3-3.6c-210.9-102-341.4-268.6-388.1-495.2-25-133.2-16.5-237.7-13.3-266.5l2-18.4 18.3 3c36.6 6.1 80.2-0.2 118.3-6.5 63-15.8 114.4-36.4 156.7-62.8 31-22.2 57.6-42.6 77-57.5l1.9-1.5c8.7-6.7 16.7-12.9 24.2-18.5l10.5-7.9 10.5 7.8c7.7 5.8 15.9 12.7 24.9 20.1L549 78c21.4 17.9 45.6 38.2 76.1 55.7 42.8 26.7 94.6 47.5 158.7 63.5 37.1 6.2 80.3 12.4 116.9 6.2l18.3-3 2 18.4c3.2 28.8 11.7 133.2-13.2 266.2C860.4 722 729.6 888.7 519 980.8l-7.4 3.3zM115.1 213.7l-0.7 6.3c-3.1 28.5-11.5 131.5 13.2 263.1 45.8 222.8 174.3 386.7 381.8 487.1l2.5 1.2 2.5-1.1c207-90.5 335.5-254.5 382.1-487.3 24.6-131.5 16.3-234.5 13.1-262.9l-0.7-6.3-6.3 1.1c-38.4 6.3-82.7 0-121.1-6.4-65.7-16.4-118.6-37.6-162.3-64.9-31.3-17.9-55.9-38.5-77.6-56.7l-1.6-1.3c-8.8-7.3-16.9-14.1-24.4-19.8L512 63l-3.6 2.7c-7.4 5.6-15.4 11.7-24.1 18.4l-1.9 1.5c-19.5 15-46.2 35.5-77.6 58-43.7 27.3-96.2 48.3-160.8 64.5-39.4 6.6-84.2 13-122.5 6.7l-6.4-1.1z" p-id="1935" fill="#036EB8"></path><path d="M680.8 382.5c-8.6 1.4-13.8 5.1-14.6 6.6l-2.2 3.1L460.1 596l-99.7-92.6c-4.4-4.4-9.6-6.6-14.8-6.6s-10.4 2.3-14.5 6.3c-4.1 4.1-6.3 9.2-6.3 14.5s2.3 10.4 6.3 14.5l110.7 104.2c3 3 5 3.3 18 3.3 13.1 0 15.1-0.3 17.8-3.1l221.9-221.9c8.4-8.4 8.4-20.6 0-29-3.2-3.1-10.7-4.4-18.7-3.1z" p-id="1936" fill="#036EB8"></path><path d="M459.8 645.4c-13.3 0-17.3-0.2-22.1-5l-110.6-104c-5.3-5.3-8.2-11.9-8.2-18.7 0-6.8 2.9-13.4 8-18.6 10.4-10.3 26.6-10.5 37.5 0.3l95.5 88.7 201.5-202.3c1.6-3.4 9.6-7.5 18.4-8.9 7.9-1.3 18.2-0.7 23.7 4.8 10.6 10.6 10.6 26.6 0 37.2L481.6 640.7c-4.5 4.5-8.5 4.7-21.8 4.7zM345.6 502.6c-3.7 0-7.4 1.7-10.5 4.7-3 3-4.7 6.7-4.7 10.4s1.7 7.4 4.7 10.5l110.5 104c1.3 1.3 1.8 1.7 14.1 1.7 12.3 0 12.8-0.4 13.7-1.4l221.9-221.9c6.2-6.2 6.2-14.7 0-20.9-1.3-1.3-6.5-2.7-13.7-1.5-6.6 1.1-10.3 3.6-10.8 4.2l-2.2 3.2L460.2 604l-103.8-96.3c-3.3-3.4-7-5.1-10.8-5.1z" p-id="1937" fill="#036EB8"></path></svg>