<?xml version="1.0" standalone="no"?><!DOCTYPE svg PUBLIC "-//W3C//DTD SVG 1.1//EN" "http://www.w3.org/Graphics/SVG/1.1/DTD/svg11.dtd"><svg t="1574670827453" class="icon" viewBox="0 0 1024 1024" version="1.1" xmlns="http://www.w3.org/2000/svg" p-id="3199" xmlns:xlink="http://www.w3.org/1999/xlink" width="18" height="18"><defs><style type="text/css"></style></defs><path d="M0 128.853333C39.936 62.976 121.173333 44.373333 190.464 26.282667 378.026667-11.264 576.682667-10.752 760.832 44.714667c64.853333 18.944 143.36 62.805333 125.952 143.36 10.752 74.581333-66.730667 108.544-124.245333 128.170666-173.738667 53.76-361.130667 55.125333-539.648 25.770667-80.213333-16.896-170.496-36.010667-222.890667-105.130667V128.853333z" fill="#bfbfbf" p-id="3200"></path><path d="M0 337.066667c128 76.458667 281.6 90.282667 427.349333 94.208 156.842667 0.170667 320-15.701333 459.434667-93.354667-1.706667 39.424-2.389333 79.018667-3.413333 118.442667-113.322667-6.997333-234.325333-11.264-338.773334 40.277333-32.597333 12.288-26.453333 49.664-32.768 77.141333-118.442667 5.973333-238.421333-0.512-353.28-30.890666-59.221333-16.725333-122.026667-38.741333-158.549333-91.648v-114.176z" fill="#bfbfbf" p-id="3201"></path><path d="M574.122667 524.629333c64-35.84 139.946667-40.448 211.626666-41.984 82.090667 1.365333 171.690667 6.997333 238.250667 61.098667v68.096c-53.930667 52.906667-134.144 57.856-205.312 63.317333-81.408 1.365333-168.448-0.853333-242.005333-39.936-40.448-19.285333-41.472-89.258667-2.56-110.592zM0 552.618667c154.624 90.282667 340.821333 96.085333 515.072 93.184 0 47.786667 0 95.744 0.170667 143.701333-95.232 4.096-191.146667 1.706667-285.184-15.189333C147.797333 756.565333 52.053333 739.328 0 665.941333v-113.322666z" fill="#bfbfbf" p-id="3202"></path><path d="M544.426667 665.258667c150.186667 63.488 330.922667 69.290667 479.573333-1.194667v62.634667c-44.202667 46.592-111.274667 55.125333-171.690667 61.781333-91.818667 5.802667-190.122667 5.632-274.090666-36.693333-35.498667-13.994667-28.501333-55.978667-33.792-86.528zM0 768c154.453333 90.624 340.821333 96.085333 515.072 93.184-2.389333 48.810667-0.170667 97.962667 9.728 145.92-96.938667 0.341333-194.730667 0.853333-290.474667-16.554667C150.528 973.312 54.272 955.733333 0 882.517333V768z" fill="#bfbfbf" p-id="3203"></path><path d="M544.597333 780.288c149.504 65.024 330.752 69.290667 479.402667-0.170667v62.976c-49.152 48.981333-121.685333 56.490667-187.050667 62.293334-86.016 3.925333-177.322667 2.389333-256.170666-36.352-37.888-13.482667-30.890667-57.002667-36.181334-88.746667zM545.28 895.488c148.821333 66.56 330.581333 69.290667 478.72 0.170667v64c-60.928 56.32-148.821333 58.538667-226.986667 64.341333h-22.869333c-68.778667-4.778667-142.336-8.362667-202.752-45.056-30.208-16.384-20.650667-55.296-26.112-83.456z" fill="#bfbfbf" p-id="3204"></path></svg>