<?xml version="1.0" standalone="no"?><!DOCTYPE svg PUBLIC "-//W3C//DTD SVG 1.1//EN" "http://www.w3.org/Graphics/SVG/1.1/DTD/svg11.dtd"><svg t="1579069759286" class="icon" viewBox="0 0 1024 1024" version="1.1" xmlns="http://www.w3.org/2000/svg" p-id="14996" xmlns:xlink="http://www.w3.org/1999/xlink" width="16" height="16"><defs><style type="text/css"></style></defs><path d="M631.532352 550.611334l-1.228024-0.685408c-38.068719 22.547077-78.307898 34.427488-116.790718 34.427488s-79.078983-11.966087-117.233378-34.684516c-69.19768 37.511825-114.448907 107.651941-117.361892 181.775993 6.868362 3.812584 23.018295 10.695225 52.119589 17.220883 33.242303 7.468095 91.630522 16.349844 180.962071 16.349844S659.705489 756.119589 692.962071 748.665774c29.115573-6.511379 45.265506-13.394021 52.133868-17.220883-2.81303-73.538599-45.865239-142.379295-113.563587-180.833557zM512 258.984382c-78.250781 0-141.922356 58.345382-141.922356 130.070504s63.657296 130.070504 141.922356 130.070504 141.908077-58.345382 141.908077-130.070504-63.657296-130.070504-141.908077-130.070504z m16.00714 77.965194c-44.051763 0-79.964302 32.556894-79.964302 72.581883 0 18.077644-15.121821 32.842481-33.713521 32.842481s-33.699241-14.70772-33.699241-32.842481c0-40.767515 18.934404-77.465417 48.992414-102.811245a135.653726 135.653726 0 0 1 92.615796-35.784025 18.206158 18.206158 0 0 1 3.91254 0.44266h1.784917c18.563141 0 33.699241 14.70772 33.699241 32.842481s-15.064703 32.713967-33.642124 32.713967z" fill="#1296db" p-id="14997"></path><path d="M512 0C229.269076 0 0 229.226238 0 512s229.226238 512 512 512 512-229.240518 512-512S794.773762 0 512 0zM760.660419 770.727354c-12.522981 6.211513-29.986613 12.137439-50.506024 17.135207-36.026774 8.767515-99.655511 19.23427-198.154395 19.234271s-162.041946-10.438197-198.140116-19.191433c-20.519411-5.040607-37.968764-10.966533-50.491745-17.135207-11.423472-5.711736-26.659527-15.193217-26.659527-31.671575a248.974565 248.974565 0 0 1 40.353414-134.982597 272.192771 272.192771 0 0 1 104.239179-94.043731c-32.842481-31.114681-53.247657-73.881303-53.247657-121.003123 0-94.92905 82.534583-172.151718 184.003569-172.151718s183.946452 77.222668 184.00357 172.151718c0 45.251227-18.563141 87.832218-52.376617 120.20348 2.527443 1.327979 5.311914 2.855868 8.653279 4.740741 83.305667 47.307452 135.039714 133.554663 135.039715 225.08523-0.071397 16.478358-15.278893 25.94556-26.716645 31.628737z" fill="#1296db" p-id="14998"></path></svg>