<?xml version="1.0" standalone="no"?><!DOCTYPE svg PUBLIC "-//W3C//DTD SVG 1.1//EN" "http://www.w3.org/Graphics/SVG/1.1/DTD/svg11.dtd"><svg t="1574653122016" class="icon" viewBox="0 0 1024 1024" version="1.1" xmlns="http://www.w3.org/2000/svg" p-id="5119" xmlns:xlink="http://www.w3.org/1999/xlink" width="18" height="18"><defs><style type="text/css"></style></defs><path d="M512 961.25952c-124.27776 0-231.43424-44.14976-318.4896-131.2-88.30464-88.2688-131.20512-192.45056-131.20512-318.49472 0-126.06976 42.90048-230.25664 131.20512-318.4896C261.40672 121.56416 351.232 77.24032 452.67968 65.55136c44.05248-3.68128 64.11776-3.78368 113.67424-0.13312h0.10752c6.74816 0 64.74752 8.47872 113.13152 26.25024a34.56512 34.56512 0 0 1 20.54144 44.38528c-6.58944 17.9712-26.49088 27.19744-44.3904 20.53632-40.29952-14.7968-88.17152-21.65248-94.00832-22.15936-46.592-3.3792-62.7712-3.30752-102.22592-0.06656-84.01408 9.728-159.24736 46.75584-216.43776 106.98752-75.29984 75.264-111.58016 163.4304-111.58016 270.21312 0 106.752 36.28032 194.92352 110.93504 269.57312C317.0816 855.79776 405.248 892.07808 512 892.07808c103.47008 0 191.81056-36.44928 270.12096-111.44192 73.93792-77.2608 110.39232-165.60128 110.39232-269.07136 0-41.5488-7.29088-84.85376-21.71904-128.7424-2.8416-5.94432-5.20192-11.8272-7.47008-17.50016-2.3296-5.87264-4.52096-11.44832-6.51776-14.42304a37.7856 37.7856 0 0 1-2.19136-3.8144c-0.03072 0-17.57184-28.68224-62.86848-29.25568h-0.56832c-40.70912 0-53.30944 19.32288-58.07104 26.61888a31.3856 31.3856 0 0 1-0.88064 1.24928l-157.85984 332.8768c-15.9488 34.56-37.16096 52.66944-62.90432 53.4784-25.80992 0.07168-49.01376-16.66048-67.99872-51.8912l-156.57984-337.408a34.60096 34.60096 0 0 1 16.82432-45.94176 34.55488 34.55488 0 0 1 45.94176 16.8192l155.66336 335.54944c1.24928 2.26816 2.40128 4.22912 3.4816 5.91872 1.04448-1.92 2.01216-3.86048 2.90816-5.85216l159.31392-335.88736c1.08032-2.2528 2.39104-4.39296 3.92192-6.37952 32.11776-48.68096 83.12832-58.07104 117.42208-58.3424 70.00064 0.87552 110.33088 42.05568 123.10016 65.53088 5.44256 8.5504 8.87808 17.26464 12.23168 25.70752 1.8176 4.62848 3.712 9.49248 6.10816 14.32064 0.74752 1.47456 1.3824 3.00032 1.88928 4.56704 17.26976 51.71712 26.01984 103.13728 26.01984 152.79104 0 120.46336-43.99104 227.45088-130.69824 317.952-91.56096 87.77216-198.5536 131.75296-319.01184 131.75296z" fill="#036EB8" p-id="5120"></path></svg>