<?xml version="1.0" standalone="no"?><!DOCTYPE svg PUBLIC "-//W3C//DTD SVG 1.1//EN" "http://www.w3.org/Graphics/SVG/1.1/DTD/svg11.dtd"><svg t="1577181478167" class="icon" viewBox="0 0 1028 1024" version="1.1" xmlns="http://www.w3.org/2000/svg" p-id="4183" xmlns:xlink="http://www.w3.org/1999/xlink" width="20.078125" height="20"><defs><style type="text/css"></style></defs><path d="M551.563636 528.290909l148.945455 116.363636c16.290909 11.636364 18.618182 34.909091 6.981818 48.872728-11.636364 16.290909-34.909091 18.618182-48.872727 6.981818l-162.909091-128c-9.309091-6.981818-13.963636-16.290909-13.963636-27.927273V256c0-18.618182 16.290909-34.909091 34.90909-34.909091s34.909091 16.290909 34.909091 34.909091v272.290909zM516.654545 1024C232.727273 1024 4.654545 795.927273 4.654545 512S232.727273 0 516.654545 0s512 228.072727 512 512-230.4 512-512 512z m0-46.545455c256 0 465.454545-209.454545 465.454546-465.454545s-209.454545-465.454545-465.454546-465.454545-465.454545 209.454545-465.454545 465.454545 207.127273 465.454545 465.454545 465.454545z" fill="#1296db" p-id="4184"></path></svg>