<?xml version="1.0" standalone="no"?><!DOCTYPE svg PUBLIC "-//W3C//DTD SVG 1.1//EN" "http://www.w3.org/Graphics/SVG/1.1/DTD/svg11.dtd"><svg t="1578902092702" class="icon" viewBox="0 0 1024 1024" version="1.1" xmlns="http://www.w3.org/2000/svg" p-id="2035" xmlns:xlink="http://www.w3.org/1999/xlink" width="16" height="16"><defs><style type="text/css"></style></defs><path d="M517.535135 30.443243c-128.691892 0-250.464865 49.816216-340.410811 141.145946C85.794595 262.918919 35.978378 384.691892 35.978378 513.383784 35.978378 779.07027 251.848649 996.324324 518.918919 996.324324c265.686486 0 482.940541-215.87027 482.94054-482.94054-1.383784-267.07027-218.637838-482.940541-484.324324-482.940541z m11.07027 482.940541l323.805406-323.805406c81.643243 84.410811 131.459459 197.881081 131.459459 323.805406 0 125.924324-49.816216 240.778378-131.459459 323.805405L528.605405 513.383784z m312.735136-336.25946L517.535135 502.313514 193.72973 177.124324c87.178378-84.410811 202.032432-131.459459 323.805405-131.459459 125.924324 0 240.778378 51.2 323.805406 131.459459z m-658.681082 11.070271L506.464865 512 182.659459 837.189189c-81.643243-84.410811-131.459459-197.881081-131.459459-323.805405 0-123.156757 47.048649-238.010811 131.459459-325.189189z m11.070271 660.064864l323.805405-323.805405 323.805406 323.805405c-84.410811 81.643243-197.881081 131.459459-323.805406 131.45946-125.924324 0-239.394595-49.816216-323.805405-131.45946z" p-id="2036" fill="#1296db"></path></svg>