<?xml version="1.0" standalone="no"?><!DOCTYPE svg PUBLIC "-//W3C//DTD SVG 1.1//EN" "http://www.w3.org/Graphics/SVG/1.1/DTD/svg11.dtd"><svg t="1579252570770" class="icon" viewBox="0 0 1024 1024" version="1.1" xmlns="http://www.w3.org/2000/svg" p-id="2584" xmlns:xlink="http://www.w3.org/1999/xlink" width="18" height="18"><defs><style type="text/css"></style></defs><path d="M805.48967411 405.44700579c-0.16642584-0.16873763-0.33516349-4.63218593-0.51083452-4.79861242l4.96041474-5.05749637-4.96041474 11.06963061c-8.60560311-8.45073482-25.80987526-16.93382998-41.79138042-17.43541931l-15.39901404-0.21265556V259.85905949c0-32.91302338-17.92776223-47.62553059-50.52180258-47.62553058H325.67932682c-32.60097504 0-49.6665588 14.71019608-49.66655879 47.62553058l-0.85986671 128.2103136-15.21640769-0.47847417c-15.06385055 0.86217849-28.25078825 7.70644137-38.68707578 17.70123795l-5.76480658-10.27448456 4.9026281 8.56399695 0.6587694 0.19416329-10.64200903-13.5336575 0.26581927-0.25888459c11.29846601-10.81999183 25.95549836-17.80987718 41.83760947-20.06818383V259.86137063C252.50511734 219.19567682 285.33030425 186.11160469 325.67932682 186.11160469h371.58731572c40.34671144 0 73.17189834 33.08407213 73.17189833 73.74976594v109.80176608c16.94769869 1.97399576 32.50851567 9.28055233 44.38716107 20.94654215l0.64490004 0.64027715-9.97630498 12.47500459-0.0046229 1.72204519z" p-id="2585" fill="#cfcfcf"></path><path d="M252.5004938 376.27162951h22.65009638v71.94681959l-22.65009638-4.29240018zM748.68067283 344.33866967h21.79254016v102.71942134l-21.79254016 2.57728901-0.85755559-105.29671035z" p-id="2586" fill="#cfcfcf"></path><path d="M760.6772026 837.88608353H263.29505934C222.6270544 837.88608353 189.54298227 807.25910487 189.54298227 769.61912506V436.07860799c0-17.03091162 7.01762342-32.45997487 20.85870632-45.85032167a7.03149213 7.03149213 0 0 1 9.86535462 0.09014699l281.51625886 282.17965114c2.66743661 2.66743661 6.55532909 4.20687547 10.64432016 4.20687547 4.10285979 0 7.98612937-1.53943885 10.66281178-4.21612128l281.83755299-281.83293072a7.02918036 7.02918036 0 0 1 9.78214168-0.15717941c0.83906396 0.7905225 20.58595303 19.6105124 19.71452872 45.70469855v333.41107511c0.01155758 37.64460272-33.07944924 68.27158202-73.7474548 68.27158136zM227.90182923 436.08785381v39.12163203l-0.24732766 286.41195229c0 26.28372717 26.11961245 46.51833622 56.1132493 46.51833685h453.25155503c29.99594797 0 56.96849309-20.23460969 56.96849309-46.51833685l-0.24732765-286.41195229c0-0.07165535-0.0046229-0.14793424 0-0.22421312-0.0046229 0.22421249 0-37.75093018 0-37.75093018l-264.16636422 254.65466474c-4.82172694 4.66223513-11.67061272 7.33429465-18.77607137 7.33429464-7.10083635 0-13.94047632-2.67668243-18.77376084-7.33429464L227.90182923 436.08785381z" p-id="2587" fill="#cfcfcf"></path><path d="M452.4079882 436.03931298l49.81449302 49.81449239a11.91562862 11.91562862 0 0 0 8.45073483 3.50650058 11.90869395 11.90869395 0 0 0 8.44611192-3.50650058l49.81449302-49.81449239c0.33747462-0.33747462 0.65414584-0.69575262 0.94307966-1.06096532 17.22276377-18.45015432 16.8298143-47.56543219-1.11875131-65.51862069-15.68332492-15.65789862-39.84974501-17.94625384-58.01790085-6.8280824a46.85812261 46.85812261 0 0 0-24.99392646-7.14475427 46.85349971 46.85349971 0 0 0-33.35451367 13.82027952 46.85349971 46.85349971 0 0 0-13.82028016 33.35220255 46.86043374 46.86043374 0 0 0 13.42270712 32.95925308c0.14099956 0.13868843 0.27275332 0.27506508 0.41375288 0.42068753m0 0z" p-id="2588" fill="#cfcfcf"></path></svg>