<?xml version="1.0" standalone="no"?><!DOCTYPE svg PUBLIC "-//W3C//DTD SVG 1.1//EN" "http://www.w3.org/Graphics/SVG/1.1/DTD/svg11.dtd"><svg t="1577181557881" class="icon" viewBox="0 0 1024 1024" version="1.1" xmlns="http://www.w3.org/2000/svg" p-id="6556" xmlns:xlink="http://www.w3.org/1999/xlink" width="20" height="20"><defs><style type="text/css"></style></defs><path d="M774.050088 599.22963H210.940388c-16.976367 0-31.063139-14.086772-31.063139-31.06314V260.063492c0-16.976367 14.086772-31.063139 31.063139-31.063139h563.1097c16.976367 0 31.063139 14.086772 31.06314 31.063139v308.102998c0 17.337566-13.725573 31.063139-31.06314 31.06314zM210.940388 239.836332c-11.197178 0-20.22716 9.029982-20.22716 20.22716v308.102998c0 11.197178 9.029982 20.22716 20.22716 20.227161h563.1097c11.197178 0 20.22716-9.029982 20.227161-20.227161V260.063492c0-11.197178-9.029982-20.22716-20.227161-20.22716H210.940388z" fill="#1296db" p-id="6557"></path><path d="M799.695238 525.183774H185.295238c-2.889594 0-5.417989-2.528395-5.417989-5.417989s2.528395-5.417989 5.417989-5.41799h614.4c2.889594 0 5.417989 2.528395 5.41799 5.41799s-2.528395 5.417989-5.41799 5.417989zM536.380952 684.111464c-2.889594 0-5.417989-2.528395-5.417989-5.41799v-79.463844h-76.57425v79.463844c0 2.889594-2.528395 5.417989-5.41799 5.41799s-5.417989-2.528395-5.417989-5.41799v-90.299823H541.798942v90.299823c0 3.250794-2.528395 5.417989-5.41799 5.41799z" fill="#1296db" p-id="6558"></path><path d="M594.17284 684.111464h-202.994004c-2.889594 0-5.417989-2.528395-5.417989-5.41799s2.528395-5.417989 5.417989-5.417989h202.994004c2.889594 0 5.417989 2.528395 5.417989 5.417989s-2.528395 5.417989-5.417989 5.41799z" fill="#1296db" p-id="6559"></path></svg>