<?xml version="1.0" standalone="no"?><!DOCTYPE svg PUBLIC "-//W3C//DTD SVG 1.1//EN" "http://www.w3.org/Graphics/SVG/1.1/DTD/svg11.dtd"><svg t="1574318858751" class="icon" viewBox="0 0 1024 1024" version="1.1" xmlns="http://www.w3.org/2000/svg" p-id="3905" xmlns:xlink="http://www.w3.org/1999/xlink" width="18" height="18"><defs><style type="text/css"></style></defs><path d="M702.526 546.621c143.726 0 260.201 37.42 260.201 83.594 0 46.173-116.491 83.576-260.201 83.576-143.758 0-260.249-37.403-260.249-83.576C442.277 584.041 558.768 546.621 702.526 546.621L702.526 546.621zM323.33 68.391c145.043 0 262.673 43.57 262.673 97.292 0 53.755-117.63 97.276-262.673 97.276-145.044 0-262.608-43.521-262.608-97.276C60.722 111.961 178.286 68.391 323.33 68.391L323.33 68.391zM47.153 316.438c26.552 14.903 81.299 31.921 116.198 40.675 31.173 7.841 64.737 13.211 99.115 15.977 19.035 1.595 38.38 2.424 57.676 2.424s38.64-0.829 57.692-2.424c34.395-2.766 67.975-8.135 99.131-15.977 34.866-8.754 87.075-21.623 113.594-36.509 0 15.309 2.197 63.256 2.197 74.222 0 11.063-7.956 23.396-22.484 35.533-8.152 6.833-18.353 13.585-30.588 19.995-11.665 6.149-24.941 11.991-40.056 17.278-45.815 16.107-106.908 27.414-179.486 27.414s-133.623-11.307-179.487-27.414c-15.114-5.287-28.341-11.129-39.958-17.278-12.251-6.459-22.501-13.162-30.636-19.995-14.48-12.137-22.452-24.47-22.452-35.533C47.608 383.859 47.153 341.656 47.153 316.438L47.153 316.438zM434.516 770.524c26.568 13.698 81.348 29.35 116.198 37.387 31.173 7.191 64.736 12.137 99.147 14.708 19.051 1.432 38.348 2.18 57.692 2.18 19.295 0 38.591-0.748 57.675-2.18 34.361-2.571 67.942-7.517 99.115-14.708 34.882-8.037 87.059-19.882 113.578-33.58 0 14.072 2.196 58.163 2.196 68.267 0 10.153-7.973 21.477-22.452 32.638-8.135 6.312-18.385 12.495-30.619 18.417-11.665 5.613-24.941 10.998-40.007 15.879-45.864 14.773-106.956 25.186-179.503 25.186-72.579 0-133.671-10.412-179.52-25.186-15.114-4.881-28.309-10.266-39.975-15.879-12.234-5.922-22.484-12.105-30.619-18.417-14.496-11.161-22.452-22.484-22.452-32.638C434.972 832.494 434.516 793.691 434.516 770.524L434.516 770.524zM331.562 696.854l0 5.271c-2.408 0-4.734 0.229-7.191 0.229-181.033 0-272.907-39.211-272.907-97.765 0-15.766 0.749-54.813 0.749-96.724 69.064 50.974 170.945 77.185 272.159 77.185 2.408 0 4.783-0.066 7.191-0.066L331.563 696.854 331.562 696.854zM331.562 696.854" p-id="3906" fill="#eeb00b"></path></svg>