<?xml version="1.0" standalone="no"?><!DOCTYPE svg PUBLIC "-//W3C//DTD SVG 1.1//EN" "http://www.w3.org/Graphics/SVG/1.1/DTD/svg11.dtd"><svg t="1574318720761" class="icon" viewBox="0 0 1024 1024" version="1.1" xmlns="http://www.w3.org/2000/svg" p-id="1879" xmlns:xlink="http://www.w3.org/1999/xlink" width="18" height="18"><defs><style type="text/css"></style></defs><path d="M955.724089 225.531301h-10.70911a43.04977 43.04977 0 0 1-40.767151-30.036707l-13.525051-39.785838C599.528843 600.350159 226.032624 637.512052 110.72836 637.512052c-19.306264 0-30.015375 0-34.324618-2.133289-23.572842-2.154622-40.745818-23.615508-38.591196-47.209683 2.133289-23.615508 23.594175-40.767151 47.18835-38.633862 16.724985 2.111956 416.801983 32.511323 729.030145-435.53226l-55.614841 19.263599c-21.439553 8.597154-47.18835-4.287911-53.60955-25.748797-8.575821-21.460886 4.287911-47.209683 25.727464-53.630883L882.808275 2.367951c10.730443-4.266578 23.594175-2.133289 32.169996 2.154621 10.730443 4.309244 17.172976 15.018354 21.460887 25.748797l47.167017 141.62905c8.575821 21.439553-4.287911 47.209683-27.882086 53.630882zM329.475803 766.256036c23.594175 0 42.90044 19.327597 42.900439 42.921773v171.665757a43.028437 43.028437 0 0 1-42.900439 42.900439 43.028437 43.028437 0 0 1-42.879107-42.900439v-171.665757c0-23.594175 19.306264-42.921772 42.879107-42.921773z m212.326243-85.822212c23.594175 0 42.90044 19.306264 42.900439 42.921773v257.487969a43.028437 43.028437 0 0 1-42.900439 42.900439 43.007104 43.007104 0 0 1-42.879107-42.900439v-257.487969c0-23.615508 19.284932-42.921772 42.879107-42.921773z m212.326243-128.743984c23.594175 0 42.90044 19.306264 42.90044 42.921772v386.231954a43.028437 43.028437 0 0 1-42.90044 42.900439 43.028437 43.028437 0 0 1-42.90044-42.900439V594.611612c0-23.615508 19.306264-42.921772 42.90044-42.921772z m175.868336-236.027083c23.594175 0 42.879107 19.306264 42.879107 42.90044v622.280369a43.007104 43.007104 0 0 1-42.879107 42.900439 43.028437 43.028437 0 0 1-42.90044-42.900439v-622.280369c0-23.594175 19.306264-42.90044 42.90044-42.90044z" p-id="1880" fill="#ff646c"></path></svg>