<?xml version="1.0" standalone="no"?><!DOCTYPE svg PUBLIC "-//W3C//DTD SVG 1.1//EN" "http://www.w3.org/Graphics/SVG/1.1/DTD/svg11.dtd"><svg t="1574653064300" class="icon" viewBox="0 0 1024 1024" version="1.1" xmlns="http://www.w3.org/2000/svg" p-id="3233" data-spm-anchor-id="a313x.7781069.0.i7" xmlns:xlink="http://www.w3.org/1999/xlink" width="18" height="18"><defs><style type="text/css"></style></defs><path d="M832.9 944H249.1c-48 0-87.1-40.5-87.1-90.3V722.2h58v131.5c0 17.8 13 32.3 29.1 32.3H833c16 0 29.1-14.5 29.1-32.3V168.3c0-17.8-13-32.3-29.1-32.3H249.1c-16 0-29.1 14.5-29.1 32.3V347h-58V168.3c0-49.8 39.1-90.3 87.1-90.3H833c48 0 87.1 40.5 87.1 90.3v685.4c-0.1 49.8-39.2 90.3-87.2 90.3z" fill="#036EB8" p-id="3234"></path><path d="M119 402h152v58H119z m-1 111h152v58H118z m1 117h152v58H119z m422-89c-71.1 0-129-57.9-129-129s57.9-129 129-129 129 57.9 129 129-57.9 129-129 129z m0-217c-48.5 0-88 39.5-88 88s39.5 88 88 88 88-39.5 88-88-39.5-88-88-88z" fill="#036EB8" p-id="3235"></path><path d="M747 720.5h-41c0-45.1-17.7-87.6-49.8-119.7-32.1-32.1-74.6-49.8-119.7-49.8-45.1 0-87.6 17.7-119.7 49.8-32.1 32.1-49.8 74.6-49.8 119.7h-41c0-56 22-108.8 61.8-148.7S480.5 510 536.5 510s108.8 22 148.7 61.8S747 664.5 747 720.5z" fill="#036EB8" p-id="3236"></path></svg>