<?xml version="1.0" standalone="no"?><!DOCTYPE svg PUBLIC "-//W3C//DTD SVG 1.1//EN" "http://www.w3.org/Graphics/SVG/1.1/DTD/svg11.dtd"><svg t="1574390866997" class="icon" viewBox="0 0 1024 1024" version="1.1" xmlns="http://www.w3.org/2000/svg" p-id="5324" xmlns:xlink="http://www.w3.org/1999/xlink" width="18" height="18"><defs><style type="text/css"></style></defs><path d="M967.0656 360.8064a35.6864 35.6864 0 0 0-6.5024-46.0288c-14.6432-11.3664-34.6624-8.1408-46.08 6.5024-1.5872 1.6384-184.1664 217.2416-401.92 217.2416-210.7904 0-402.0224-217.2416-403.6096-218.88a33.6384 33.6384 0 0 0-46.08-3.2256 33.6384 33.6384 0 0 0-3.2256 46.08c3.2256 4.8128 42.8032 49.2544 105.6256 98.56l-83.968 87.1936a32.0512 32.0512 0 0 0 1.6384 46.08c3.2256 6.5024 11.3664 9.728 19.456 9.728a34.304 34.304 0 0 0 23.3472-9.728l90.4704-93.696c42.752 29.7472 93.696 57.344 150.016 77.4144l-34.6624 117.0432a32.9728 32.9728 0 0 0 23.296 41.1648h9.728c14.6432 0 28.16-9.728 31.4368-24.9344l34.7136-116.992a456.2944 456.2944 0 0 0 82.3296 8.0896c28.16 0 55.808-3.2256 82.3296-8.0896l34.6624 115.3536c3.2768 14.6432 17.92 24.9344 31.4368 24.9344 3.2768 0 6.5024 0 8.1408-1.6384a33.3824 33.3824 0 0 0 23.296-41.1648l-34.6624-115.3536c55.808-19.5072 107.264-47.7184 150.016-77.5168l88.8832 92.16c6.5024 6.4512 14.592 9.728 23.296 9.728a33.5872 33.5872 0 0 0 24.9344-55.808l-83.968-87.2448c66.048-49.3056 105.6256-96.9728 105.6256-96.9728z" fill="#BFBFBF" p-id="5325"></path></svg>