<?xml version="1.0" standalone="no"?><!DOCTYPE svg PUBLIC "-//W3C//DTD SVG 1.1//EN" "http://www.w3.org/Graphics/SVG/1.1/DTD/svg11.dtd"><svg t="1574390035104" class="icon" viewBox="0 0 1024 1024" version="1.1" xmlns="http://www.w3.org/2000/svg" p-id="4014" xmlns:xlink="http://www.w3.org/1999/xlink" width="18" height="18"><defs><style type="text/css"></style></defs><path d="M511.8 832.4c-105.4 0-190.9-85.5-190.9-190.9s85.5-190.9 190.9-190.9S702.7 536 702.7 641.4s-85.5 191-190.9 191z m439-273.5c9.6 14.3 6.4 33.4-6.4 44.6-14.3 11.1-33.4 8-44.6-6.4-1.6-1.6-178.2-210.1-388.3-210.1-203.7 0-388.4 210.1-390 211.7-11.1 12.7-31.8 14.3-44.6 3.2-12.7-11.1-14.3-31.8-3.2-44.6 3.2-4.8 41.4-47.7 101.9-95.5l-81.2-84.4C81.7 364.7 83.3 344 96 332.9c3.2-6.4 11.1-9.6 19.1-9.6s15.9 3.2 22.3 9.6l87.5 90.7c41.4-28.6 90.7-55.7 144.8-74.8l-33.4-113c-4.8-17.5 4.8-35 22.3-39.8h9.6c14.3 0 27.1 9.6 30.2 23.9l33.4 113c25.5-4.8 52.5-8 79.6-8 27.1 0 54.1 3.2 79.6 8l33.4-111.4c3.2-14.3 17.5-23.9 30.2-23.9 3.2 0 6.4 0 8 1.6 17.5 4.8 27.1 22.3 22.3 39.8l-33.4 111.4c54.1 19.1 103.5 46.2 144.8 74.8l85.9-89.1c6.4-6.4 14.3-9.6 22.3-9.6s15.9 3.2 22.3 9.6c12.7 12.7 12.7 31.8 1.6 44.6L847.3 465c65.3 47.7 103.5 93.9 103.5 93.9z" p-id="4015" fill="#bfbfbf"></path></svg>