<?xml version="1.0" standalone="no"?><!DOCTYPE svg PUBLIC "-//W3C//DTD SVG 1.1//EN" "http://www.w3.org/Graphics/SVG/1.1/DTD/svg11.dtd"><svg t="1583138187790" class="icon" viewBox="0 0 1024 1024" version="1.1" xmlns="http://www.w3.org/2000/svg" p-id="2333" xmlns:xlink="http://www.w3.org/1999/xlink" width="16" height="16"><defs><style type="text/css"></style></defs><path d="M561.942121 511.986835l159.739893-159.813034a7.094675 7.094675 0 0 0 0-9.947173l-39.934973-39.934973a7.094675 7.094675 0 0 0-9.947173 0L511.986835 462.031548 352.173801 302.291655a7.094675 7.094675 0 0 0-9.947173 0l-39.934973 39.934973a7.094675 7.094675 0 0 0 0 9.947173L462.031548 511.986835 302.291655 671.799868a7.094675 7.094675 0 0 0 0 9.947173l39.934973 39.934973a7.094675 7.094675 0 0 0 9.947173 0L511.986835 561.942121l159.813033 159.739893a7.094675 7.094675 0 0 0 9.947173 0l39.934973-39.934973a7.094675 7.094675 0 0 0 0-9.947173L561.942121 511.986835zM149.939002 874.034668a511.986835 511.986835 0 1 1 724.095666-724.095666 511.986835 511.986835 0 0 1-724.095666 724.095666z" fill="#F1603E" p-id="2334"></path></svg>