<?xml version="1.0" standalone="no"?><!DOCTYPE svg PUBLIC "-//W3C//DTD SVG 1.1//EN" "http://www.w3.org/Graphics/SVG/1.1/DTD/svg11.dtd"><svg t="1574671241871" class="icon" viewBox="0 0 1024 1024" version="1.1" xmlns="http://www.w3.org/2000/svg" p-id="9239" xmlns:xlink="http://www.w3.org/1999/xlink" width="18" height="18"><defs><style type="text/css"></style></defs><path d="M677.404398 418.417662a28.444437 28.444437 0 0 0-26.168881-28.444437H185.315646a28.444437 28.444437 0 0 0 0 56.888873h465.919871a28.444437 28.444437 0 0 0 26.168881-28.444436zM477.724454 605.582054a28.444437 28.444437 0 0 0-26.168882-28.444437H185.315646a28.444437 28.444437 0 0 0 0 56.888874h265.671038a28.444437 28.444437 0 0 0 26.168881-28.444437zM185.315646 259.697706h465.919871a28.444437 28.444437 0 0 0 0-56.888873H185.315646a28.444437 28.444437 0 0 0 0 56.888873zM185.315646 764.30201a28.444437 28.444437 0 0 0 0 56.888873h184.604393a28.444437 28.444437 0 0 0 0-56.888873z" fill="#bfbfbf" p-id="9240"></path><path d="M139.804548 1023.999716h420.124328a28.444437 28.444437 0 0 0 0-56.888874H139.804548A68.266648 68.266648 0 0 1 71.5379 898.844195V125.155521A68.266648 68.266648 0 0 1 139.804548 56.888873h604.444276A68.266648 68.266648 0 0 1 811.09325 125.155521v293.262141a28.444437 28.444437 0 0 0 56.888873 0V125.155521A125.155521 125.155521 0 0 0 743.96438 0H139.804548A125.155521 125.155521 0 0 0 14.649027 125.155521v773.688674A125.439965 125.439965 0 0 0 139.804548 1023.999716z" fill="#bfbfbf" p-id="9241"></path><path d="M754.204377 1023.999716a254.293263 254.293263 0 1 0-254.008818-254.008819A254.293263 254.293263 0 0 0 754.204377 1023.999716z m0-451.413208a197.40439 197.40439 0 1 1-197.119945 197.404389A197.40439 197.40439 0 0 1 754.204377 572.586508z" fill="#bfbfbf" p-id="9242"></path><path d="M560.867542 893.04153l341.447016-292.664808 39.6231 46.22221-341.447016 292.664807z" fill="#bfbfbf" p-id="9243"></path></svg>