<?xml version="1.0" standalone="no"?><!DOCTYPE svg PUBLIC "-//W3C//DTD SVG 1.1//EN" "http://www.w3.org/Graphics/SVG/1.1/DTD/svg11.dtd"><svg t="1577241817740" class="icon" viewBox="0 0 1024 1024" version="1.1" xmlns="http://www.w3.org/2000/svg" p-id="8266" width="32" height="32" xmlns:xlink="http://www.w3.org/1999/xlink"><defs><style type="text/css"></style></defs><path d="M797.23008 416H209.92v342.08256c0 1.95072 1.56672 3.52256 3.52256 3.52256H405.76c17.67424 0 26.88-1.02912 26.88 16.64s-9.20576 11.52-26.88 11.52H222.58688c-37.28896 0-40.82688-19.98848-40.82688-57.28256l-1.17248-475.41248c0-37.28896 25.10848-33.06496 62.40256-33.06496h511.25248C802.56 223.99488 821.76 222.72 821.76 266.24v117.76c0 22.61504-6.8608 32-24.52992 32z m1.48992-23.04V250.56256a3.52256 3.52256 0 0 0-3.52256-3.52256h-56.32H208.31744c-4.87936 0-3.51744 7.04-3.51744 13.76256V392.96h593.92z m-8.96 407.04h-256a32.00512 32.00512 0 0 1-26.56256-49.59744L616.64256 640l-109.12256-116.48c-9.7024-14.79168-5.89824-28.5696 8.89344-38.272 5.15584-3.38432-6.16448 0.04096 0 0l273.34656-5.248c17.66912 0.09216 29.65504 6.18496 28.69248 18.176-0.03584 6.20032-0.96256 8.64256-4.37248 13.824l-117.44256 128 119.68 110.40256a32.0256 32.0256 0 0 1-26.55744 49.59744zM522.24 785.92l281.6-11.52-113.60768-106.63936c-13.3376-16.03072-13.3376-36.93056 0-52.96128l105.2928-116.66432L521.39008 506.88l109.3376 107.91936c13.3376 16.03072 13.3376 36.93056 0 52.96128L526.08 769.28l-3.84 16.64z" p-id="8267" fill="#1296db"></path></svg>