<?xml version="1.0" standalone="no"?><!DOCTYPE svg PUBLIC "-//W3C//DTD SVG 1.1//EN" "http://www.w3.org/Graphics/SVG/1.1/DTD/svg11.dtd"><svg t="1582612453852" class="icon" viewBox="0 0 1024 1024" version="1.1" xmlns="http://www.w3.org/2000/svg" p-id="2785" width="16" height="16" xmlns:xlink="http://www.w3.org/1999/xlink"><defs><style type="text/css"></style></defs><path d="M844.898 386.771h-19.783L561.698 136.277c2.31-6.177 3.561-12.767 3.561-19.383 0-14.248-5.74-28.412-15.598-38.489S525.945 62.461 512 62.461s-27.8 5.867-37.661 15.944c-9.864 10.077-15.607 24.245-15.607 38.489 0 6.617 1.251 13.209 3.564 19.388L198.882 386.771h-19.786c-29.361 0-53.262 24.427-53.262 54.439v462.71c0 30.006 23.902 54.433 53.262 54.433h665.803c29.37 0 53.265-24.427 53.268-54.433V441.21c0-30.012-23.899-54.439-53.269-54.439zM489.505 166.176c7.025 3.34 14.745 5.157 22.495 5.157 7.75 0 15.47-1.818 22.494-5.157l231.995 220.595H257.503l232.002-220.595zM179.096 903.92V441.21h665.809l0.025 462.71H179.096z m159.793-272.19c-10.454 0-20.853 4.405-28.245 11.962-7.399 7.556-11.699 18.177-11.699 28.866 0 10.692 4.303 21.313 11.699 28.869 7.393 7.556 17.791 11.962 28.245 11.962 10.46 0 20.859-4.405 28.251-11.962 7.396-7.559 11.699-18.177 11.699-28.869 0-10.689-4.303-21.31-11.699-28.866-7.392-7.557-17.791-11.962-28.251-11.962z m173.111 0c-10.457 0-20.856 4.405-28.248 11.962-7.396 7.556-11.699 18.177-11.699 28.866 0 10.692 4.303 21.313 11.699 28.869s17.791 11.962 28.248 11.962 20.853-4.405 28.248-11.962c7.396-7.559 11.699-18.177 11.699-28.869 0-10.689-4.307-21.31-11.699-28.866-7.392-7.554-17.791-11.962-28.248-11.962z m173.108 0c-10.457 0-20.853 4.405-28.248 11.962-7.393 7.556-11.696 18.177-11.696 28.866 0 10.692 4.303 21.313 11.696 28.869 7.396 7.556 17.791 11.962 28.248 11.962 10.46 0 20.856-4.405 28.251-11.962 7.393-7.559 11.696-18.177 11.696-28.869 0-10.689-4.303-21.31-11.696-28.866-7.398-7.557-17.791-11.962-28.251-11.962z" p-id="2786" fill="#06B56A"></path></svg>