<?xml version="1.0" standalone="no"?><!DOCTYPE svg PUBLIC "-//W3C//DTD SVG 1.1//EN" "http://www.w3.org/Graphics/SVG/1.1/DTD/svg11.dtd"><svg t="1574653150391" class="icon" viewBox="0 0 1024 1024" version="1.1" xmlns="http://www.w3.org/2000/svg" p-id="6097" xmlns:xlink="http://www.w3.org/1999/xlink" width="18" height="18"><defs><style type="text/css"></style></defs><path d="M514.423 31.351c-266.151 0-481.909 215.758-481.909 481.909s215.758 481.909 481.909 481.909 481.909-215.758 481.909-481.909-215.758-481.909-481.909-481.909zM514.423 943.071c-237.377 0-429.81-192.433-429.81-429.81s192.433-429.81 429.81-429.81 429.81 192.433 429.81 429.81-192.432 429.81-429.81 429.81zM514.448 288.022c-10.076 11.052-15.262 24.482-15.262 39.983 0 12.757 4.146 23.889 12.304 32.489 8.302 8.758 19.044 13.281 31.268 13.281 9.933 0 24.682-3.04 38.169-18.028 10.524-11.35 15.858-25.001 15.858-40.206 0-12.46-4.301-23.361-12.527-31.821-17.936-18.465-50.541-16.465-69.809 4.304zM551.958 608.765c-12.918 12.311-21.963 20.01-27.986 24.87 2.955-15.951 10.641-47.588 29.152-109.891 18.451-61.749 20.052-72.525 20.052-77.82 0-9.234-3.879-17.424-10.583-23.086-15.067-12.439-41.637-9.973-73.74 8.19-17.898 10.035-36.902 26.411-58.126 49.682l-11.069 12.311 36.72 28.319 9.407-9.296c10.211-9.913 17.158-16.375 21.773-20.687-28.048 92.224-41.699 149.537-41.699 175.213 0 11.634 3.383 21.302 10.211 28.628 6.891 7.508 16.544 11.453 27.618 11.453 10.822 0 23.245-4.188 38.317-12.746 13.59-7.693 34.009-24.565 62.551-51.404l11.561-11.085-33.394-32.507-10.764 9.854z" p-id="6098" fill="#036EB8"></path></svg>