<?xml version="1.0" standalone="no"?><!DOCTYPE svg PUBLIC "-//W3C//DTD SVG 1.1//EN" "http://www.w3.org/Graphics/SVG/1.1/DTD/svg11.dtd"><svg t="1574324675274" class="icon" viewBox="0 0 1024 1024" version="1.1" xmlns="http://www.w3.org/2000/svg" p-id="1875" xmlns:xlink="http://www.w3.org/1999/xlink" width="18" height="18"><defs><style type="text/css"></style></defs><path d="M512 605.162003a93.635381 93.635381 0 0 0-69.359542 156.058969v6.935954a69.359542 69.359542 0 1 0 138.719084 0V759.486983a93.635381 93.635381 0 0 0-69.359542-156.058969z m22.541851 133.517118v29.477805a22.541851 22.541851 0 0 1-46.817691 0V738.679121a46.817691 46.817691 0 0 1 24.27584-86.699428 46.817691 46.817691 0 0 1 22.541851 86.699428zM791.172156 419.625228v-138.719084a279.172156 279.172156 0 0 0-558.344312 0v138.719084A93.635381 93.635381 0 0 0 139.192463 511.526621v419.625228C139.192463 983.171506 180.808188 1023.053242 232.827844 1023.053242h558.344312C843.191812 1023.053242 883.073549 983.171506 883.073549 931.151849V511.526621A93.635381 93.635381 0 0 0 791.172156 419.625228zM277.911546 280.906144a232.354465 232.354465 0 1 1 464.708931 0v138.719084H277.911546v-138.719084z m558.344312 650.245705a46.817691 46.817691 0 0 1-46.817691 46.817691H232.827844A46.817691 46.817691 0 0 1 186.010153 931.151849V511.526621C186.010153 485.516793 206.818016 464.70893 232.827844 464.70893h558.344312C815.447996 464.70893 837.989847 485.516793 837.989847 511.526621v419.625228z" fill="#0093ff" p-id="1876"></path></svg>