<?xml version="1.0" standalone="no"?><!DOCTYPE svg PUBLIC "-//W3C//DTD SVG 1.1//EN" "http://www.w3.org/Graphics/SVG/1.1/DTD/svg11.dtd"><svg t="1583551070762" class="icon" viewBox="0 0 1024 1024" version="1.1" xmlns="http://www.w3.org/2000/svg" p-id="4307" width="20" height="20" xmlns:xlink="http://www.w3.org/1999/xlink"><defs><style type="text/css"></style></defs><path d="M508.77500029 707.11250029c-9.675-6.45000029-11.8125-15.03749971-6.45000029-25.78125058 24.71249971-33.3 36.52499971-87.00000029 35.45624971-161.11874971v-145.03124971c0-12.88125001 6.45000029-20.40000029 19.33125029-22.55625 33.3-1.06875001 72.50625001-4.8375 117.63749971-11.28750029 11.8125-2.1375 18.7875 2.7 20.94375058 14.5125 1.06875001 10.74375001-3.75000029 17.19375029-14.5125 19.33125029a1570.68749971 1570.68749971 0 0 1-99.9 9.675c-5.36249971 0-8.06249971 3.22499971-8.06250058 9.65624942v74.1187503h119.25c10.74375001 1.08749971 16.65 6.99374971 17.71875 17.7374997-1.06875001 9.65625029-6.975 15.03749971-17.71875 16.1250003h-32.23125v196.57500028c-1.06875001 10.72500029-6.975 16.65-17.71875 17.71875-9.675-1.06875001-15.03749971-6.99374971-16.12499942-17.71875V502.47500029h-53.15625v16.12499942c1.06875001 81.63749971-11.8125 142.3125-38.6812503 182.06250029-5.36249971 10.74375001-13.96874971 12.89999971-25.7812497 6.45000029z m-116.00625058-248.13750058c-1.08749971 0-2.15624971 0.54375029-3.22499972 1.61250029h40.275a459.37500029 459.37500029 0 0 0 14.5125-27.39374999c6.43124971-10.74375001 10.74375001-18.26250029 12.88125001-22.55625001 5.38125029-9.675 13.42500029-12.89999971 24.1875-9.675 8.58750029 5.38125029 10.72500029 12.35625029 6.43124971 20.94374971-4.31250029 8.60625001-11.8125 21.4875-22.55625 38.68125029h43.50000058c8.58750029 1.06875001 13.42500029 5.90625001 14.5125 14.49375029-1.08749971 9.675-5.92499971 15.03749971-14.5125 16.12499942h-72.50625a10.93124971 10.93124971 0 0 1 3.2249997 8.06250058v33.82499972h61.21874972c8.60625001 1.06875001 13.44375001 5.90625001 14.5125 14.49375028-1.06875001 9.675-5.90625001 15.05625029-14.5125 16.12499942h-61.21874972v95.0625c0 30.07500029-13.42500029 45.65625029-40.2937497 46.72500029h-14.4937503a171.52499971 171.52499971 0 0 1-17.71874999 1.61250029c-10.74375001 0-17.19375029-5.90625001-19.35-17.71875 1.08749971-10.74375001 6.45000029-16.65 16.12500029-17.71875 2.1375 0 5.36249971 0.52499971 9.65624942 1.61249942h9.675c13.96874971 0 20.94374971-7.51875029 20.94375058-22.57499971v-87.00000029H338.00000029c-9.675-1.06875001-15.03749971-6.45000029-16.12500029-16.12499942 1.08749971-8.58750029 6.45000029-13.42500029 16.12500029-14.49375028h66.05624972V499.24999971c0-3.22499971 1.06875001-5.90625001 3.2249997-8.06249971h-78.9374997c-9.69374971-1.06875001-15.05625029-6.43124971-16.1250003-16.10624971 1.06875001-8.58750029 6.43124971-13.42500029 16.1250003-14.49375029h49.93125028c-3.22499971-1.06875001-5.90625001-3.75000029-8.06250058-8.06249971-1.06875001-1.06875001-2.68125029-3.75000029-4.81874942-8.06250058a666.50625001 666.50625001 0 0 0-12.90000058-20.9437497c-4.29374971-8.58750029-2.68125029-15.56250029 4.8375-20.94374972 9.675-3.22499971 17.19375029-1.06875001 22.55625 6.44999942 2.15624971 2.1375 5.38125029 6.45000029 9.675 12.88125 5.36249971 7.51875029 8.58750029 12.375 9.6562503 14.5125 4.31250029 8.58750029 2.15624971 16.12500029-6.43124972 22.55625z m-53.17499972-62.84999971c-8.60625001-1.06875001-13.42500029-6.43124971-14.5125-16.12500029 1.08749971-8.56874971 5.90625001-13.40624971 14.5125-14.49374942h66.05624972c-3.22499971-10.72500029-6.45000029-19.31249971-9.65624942-25.78125058-1.08749971-10.72500029 3.20625001-17.17499971 12.88125-19.31249971 10.74375001-2.15624971 18.80624971 1.06875001 24.1875 9.65625029 0 1.06875001 0.52499971 3.22499971 1.5937497 6.44999942 4.31250029 13.95 8.06249971 23.625 11.2875003 28.98750058h53.15625c9.675 1.08749971 15.05625029 5.92499971 16.12499942 14.5125-1.06875001 9.675-6.45000029 15.03749971-16.12499942 16.12499942h-159.5062503z m-12.8999997 273.9375c-7.49999971-5.38125029-9.65625029-12.375-6.4500003-20.94374971a1458.675 1458.675 0 0 0 29.0062503-58.01250058c4.31250029-8.60625001 10.74375001-11.28750029 19.35-8.0624997 8.58750029 4.31250029 11.8125 10.74375001 9.65624942 19.33125028-3.22499971 5.38125029-8.06249971 15.58125001-14.49374942 30.61874972-7.51875029 13.96874971-12.89999971 24.1875-16.12500029 30.6187497-4.29374971 7.51875029-11.26874971 9.675-20.94374971 6.45000029z m177.24375-22.55624999c-8.58750029 4.29374971-16.12500029 2.1375-22.55625-6.4500003a1000.6875 1000.6875 0 0 1-24.16875029-38.68124942c-4.29374971-7.49999971-2.68125029-14.49375029 4.8375-20.94375058 8.58750029-3.22499971 16.12500029-1.06875001 22.55624999 6.4500003l12.89999972 19.33125028c5.36249971 8.58750029 9.13124971 15.03749971 11.26875058 19.33124942 4.31250029 7.51875029 2.68125029 14.5125-4.8375 20.9625003z" fill="#d81e06" p-id="4308"></path><path d="M655.55 165.46249971A373.91249971 373.91249971 0 0 0 512 136.99999971C304.8875 136.99999971 136.99999971 304.8875 136.99999971 512s167.88750029 375.00000029 375.00000029 375.00000029 375.00000029-167.88750029 375.00000029-375.00000029c0-49.87500029-9.74999971-98.4375-28.4625-143.55a18.74999971 18.74999971 0 0 0-34.63125028 14.36249971A336.41250029 336.41250029 0 0 1 849.5 512c0 186.39375029-151.10624971 337.5-337.5 337.5S174.5 698.39375029 174.5 512 325.60624971 174.5 512 174.5c44.92500029 0 88.59375001 8.775 129.18750029 25.59375001a18.74999971 18.74999971 0 0 0 14.36249971-34.6312503z" fill="#d81e06" p-id="4309"></path></svg>