<?xml version="1.0" standalone="no"?><!DOCTYPE svg PUBLIC "-//W3C//DTD SVG 1.1//EN" "http://www.w3.org/Graphics/SVG/1.1/DTD/svg11.dtd"><svg t="1583554463182" class="icon" viewBox="0 0 1025 1024" version="1.1" xmlns="http://www.w3.org/2000/svg" p-id="5248" xmlns:xlink="http://www.w3.org/1999/xlink" width="20.01953125" height="20"><defs><style type="text/css"></style></defs><path d="M602.368 1024c-7.288 0-14.456-2.65-20.118-7.77L289.687 752.94H120.486c-48.43 0-120.47-32.105-120.47-120.47V451.765c0-48.43 32.105-120.47 120.47-120.47h169.14L582.19 67.944c8.855-8.01 21.565-9.938 32.407-5.12a30.074 30.074 0 0 1 17.89 27.528v903.53c0 11.866-6.927 22.708-17.83 27.527-3.915 1.747-8.131 2.59-12.288 2.59zM120.486 391.53c-57.344 0-60.235 50.175-60.235 60.235V632.47c0 57.283 50.176 60.235 60.235 60.235h180.706c7.469 0 14.637 2.77 20.118 7.77l250.94 225.762v-768.24L321.37 383.758c-5.541 5-12.709 7.77-20.178 7.77H120.486z m632.47-30.118c-7.65 0-15.42-2.952-21.323-8.795-11.746-11.745-11.746-30.84 0-42.586l120.47-120.47c11.747-11.746 30.841-11.746 42.587 0s11.746 30.84 0 42.586l-120.47 120.47c-5.843 5.843-13.493 8.795-21.263 8.795z m180.706 210.823H752.957c-16.565 0-30.118-13.492-30.118-30.117S736.392 512 752.957 512h180.705c16.686 0 30.118 13.493 30.118 30.118s-13.432 30.117-30.118 30.117zM873.427 903.53c-7.65 0-15.42-2.951-21.323-8.794l-120.47-120.47c-11.747-11.746-11.747-30.841 0-42.587s30.84-11.746 42.586 0l120.47 120.47c11.746 11.747 11.746 30.841 0 42.587-5.843 5.843-13.493 8.794-21.263 8.794z" fill="#ED6A0C" p-id="5249"></path></svg>