<?xml version="1.0" standalone="no"?><!DOCTYPE svg PUBLIC "-//W3C//DTD SVG 1.1//EN" "http://www.w3.org/Graphics/SVG/1.1/DTD/svg11.dtd"><svg t="1579057292624" class="icon" viewBox="0 0 1024 1024" version="1.1" xmlns="http://www.w3.org/2000/svg" p-id="2084" xmlns:xlink="http://www.w3.org/1999/xlink" width="16" height="16"><defs><style type="text/css"></style></defs><path d="M0 512a512 512 0 0 0 512 512 512 512 0 0 0 512-512 512 512 0 0 0-512-512 512 512 0 0 0-512 512z m544.036571 288.036571a31.963429 31.963429 0 1 1-64 0 31.963429 31.963429 0 1 1 64 0z m0-128a31.963429 31.963429 0 1 1-64 0V223.890286a31.963429 31.963429 0 1 1 64 0v448.073143z" fill="#FAAD14" p-id="2085"></path></svg>