<?xml version="1.0" standalone="no"?><!DOCTYPE svg PUBLIC "-//W3C//DTD SVG 1.1//EN" "http://www.w3.org/Graphics/SVG/1.1/DTD/svg11.dtd"><svg t="1574318897593" class="icon" viewBox="0 0 1024 1024" version="1.1" xmlns="http://www.w3.org/2000/svg" p-id="4778" xmlns:xlink="http://www.w3.org/1999/xlink" width="18" height="18"><defs><style type="text/css"></style></defs><path d="M932 212c-15.2 0-27.2 12-27.2 26.4v47.2C825.6 154.4 680 65.6 513.6 65.6c-216.8 0-397.6 148.8-443.2 348-1.6 3.2-2.4 7.2-2.4 11.2 0 14.4 12 26.4 27.2 26.4s27.2-12 27.2-26.4c40-176 200-307.2 391.2-307.2s351.2 131.2 391.2 307.2c0 14.4 12 26.4 27.2 26.4s27.2-12 27.2-26.4V238.4c0-15.2-12.8-26.4-27.2-26.4z m0 359.2c-15.2 0-27.2 12-27.2 26.4-40 176-200 307.2-391.2 307.2S162.4 773.6 122.4 597.6c0-14.4-12-26.4-27.2-26.4s-27.2 12-27.2 26.4V784c0 14.4 12 26.4 27.2 26.4s27.2-12 27.2-26.4v-47.2c79.2 131.2 224.8 219.2 391.2 219.2 216.8 0 397.6-148.8 443.2-348 1.6-3.2 2.4-7.2 2.4-11.2 0-13.6-12.8-25.6-27.2-25.6z" fill="#29a3ee" p-id="4779"></path><path d="M156 518.4c0-25.6 4-47.2 11.2-64.8 5.6-12.8 13.6-24.8 23.2-34.4 9.6-10.4 20.8-17.6 32.8-22.4 16-6.4 33.6-10.4 54.4-10.4 37.6 0 67.2 11.2 89.6 34.4 22.4 23.2 33.6 55.2 33.6 96s-11.2 72.8-33.6 96c-22.4 23.2-52 34.4-88.8 34.4-37.6 0-67.2-11.2-89.6-34.4-21.6-22.4-32.8-54.4-32.8-94.4z m52.8-1.6c0 28.8 6.4 50.4 20 64.8s30.4 22.4 50.4 22.4 36.8-7.2 50.4-21.6c12.8-14.4 19.2-36.8 19.2-65.6 0-28.8-6.4-50.4-19.2-64.8-12.8-14.4-29.6-21.6-50.4-21.6-20.8 0-37.6 7.2-51.2 21.6-12.8 13.6-19.2 36-19.2 64.8zM497.6 643.2V433.6h-75.2v-42.4H624v42.4h-75.2v210.4h-51.2zM818.4 550.4l49.6 16c-7.2 27.2-20 48-37.6 61.6-17.6 13.6-40 20-67.2 20-33.6 0-60.8-11.2-82.4-34.4-21.6-23.2-32.8-54.4-32.8-94.4 0-42.4 11.2-74.4 32.8-98.4s50.4-35.2 85.6-35.2c31.2 0 56 8.8 75.2 27.2 11.2 11.2 20 26.4 25.6 46.4l-50.4 12c-3.2-12.8-9.6-23.2-18.4-31.2s-20.8-11.2-34.4-11.2c-18.4 0-33.6 6.4-45.6 20s-17.6 35.2-17.6 65.6c0 32 5.6 54.4 17.6 68 11.2 13.6 26.4 20 44.8 20 13.6 0 25.6-4 35.2-12.8 8.8-7.2 16-20.8 20-39.2z" fill="#29a3ee" p-id="4780"></path></svg>