<?xml version="1.0" standalone="no"?><!DOCTYPE svg PUBLIC "-//W3C//DTD SVG 1.1//EN" "http://www.w3.org/Graphics/SVG/1.1/DTD/svg11.dtd"><svg t="1574318984835" class="icon" viewBox="0 0 1024 1024" version="1.1" xmlns="http://www.w3.org/2000/svg" p-id="5303" xmlns:xlink="http://www.w3.org/1999/xlink" width="18" height="18"><defs><style type="text/css"></style></defs><path d="M684.544 459.264c-90.624 1.024-181.248 2.56-271.36 3.584-9.728 0-17.92 3.584-25.6 11.264-8.704 10.24-11.776 22.528-6.144 35.84 5.632 13.312 16.384 20.992 30.72 20.992 15.36 0.512 30.72 0 46.08-0.512l226.816-3.072c20.48-0.512 35.84-14.848 35.328-34.304 0-18.944-15.36-33.792-35.84-33.792z" p-id="5304" fill="#06b56a"></path><path d="M584.704 355.328c-2.56-25.088-29.696-38.912-51.712-25.6-12.288 7.68-16.896 18.944-16.896 32.768v265.728c0 3.072 0 6.656 0.512 9.728 2.56 13.312 10.24 22.016 23.04 26.624 13.312 4.608 24.576 1.024 34.304-7.68 7.68-8.192 10.752-16.896 10.752-27.648V360.96c0.512-1.536 0.512-3.584 0-5.632z" p-id="5305" fill="#06b56a"></path><path d="M34.304 281.6c0.512 29.184 0.512 58.88 1.024 88.064 0.512 34.304 17.408 56.832 49.152 68.608 10.752 4.096 22.016 9.728 30.208 17.408 47.616 43.008 32.256 119.296-27.648 142.336-32.256 12.288-48.128 35.84-47.616 70.144 0.512 29.184 0.512 58.368 1.024 87.04 1.024 60.416 46.08 104.448 106.496 103.936 249.344-3.072 498.176-6.656 747.52-10.24 60.416-1.024 103.936-46.08 103.424-106.496-0.512-29.184-0.512-58.88-1.024-88.064-0.512-34.304-16.896-56.832-49.152-68.608-5.632-2.048-11.264-5.12-16.896-8.192-10.752-6.144-17.92-13.824-19.456-15.36-2.048-2.048-3.584-4.608-5.632-6.656-32.256-47.104-13.824-108.032 39.424-129.024 31.744-12.288 47.616-35.84 47.104-70.144-0.512-29.696-0.512-58.88-1.024-88.576-1.024-59.904-46.08-103.936-105.984-102.912l-451.072 6.144h-3.072c-19.456 0.512-34.816 15.872-34.816 34.816 0 18.432 15.36 33.28 34.304 33.792h2.048c19.968-0.512 39.936-0.512 59.904-1.024 130.048-1.536 260.096-3.584 390.144-5.12 27.136-0.512 39.936 12.288 40.448 39.424 0.512 27.648 0.512 54.784 1.024 82.432 0 5.12-1.536 7.168-5.632 8.704-95.744 38.4-127.488 157.184-63.488 237.568 17.92 22.528 39.936 38.4 67.072 48.128 4.608 1.536 6.144 4.096 6.144 9.216 0 28.16 0.512 55.808 1.024 83.456 0.512 24.064-13.312 37.888-37.376 38.4-248.32 3.584-497.152 6.656-745.472 10.24-24.064 0.512-37.888-13.312-38.4-37.376-0.512-27.648-0.512-55.808-1.024-83.456 0-4.608 1.536-7.168 5.632-8.704 94.208-37.376 127.488-150.528 68.096-232.96-5.12-6.656-10.752-13.312-16.384-19.456-16.384-15.36-34.816-26.624-55.808-33.792-4.096-1.536-5.632-3.584-5.632-8.192 0-28.16-0.512-56.32-1.024-84.48-0.512-24.064 13.312-37.888 37.376-38.4 15.36 0 30.208-0.512 45.568-0.512h0.512c18.944-0.512 34.304-15.872 33.792-34.816 1.024-19.968-14.848-34.816-34.304-34.816h-3.584c-14.336 0-28.672 0.512-43.008 0.512-60.416 1.024-104.448 46.592-103.936 107.008z m0 0" p-id="5306" fill="#06b56a"></path></svg>