<?xml version="1.0" standalone="no"?><!DOCTYPE svg PUBLIC "-//W3C//DTD SVG 1.1//EN" "http://www.w3.org/Graphics/SVG/1.1/DTD/svg11.dtd"><svg t="1574388899655" class="icon" viewBox="0 0 1024 1024" version="1.1" xmlns="http://www.w3.org/2000/svg" p-id="1875" xmlns:xlink="http://www.w3.org/1999/xlink" width="18" height="18"><defs><style type="text/css"></style></defs><path d="M320 362.666667v-64a192 192 0 0 1 384 0v64h64a85.333333 85.333333 0 0 1 85.333333 85.333333v384a85.333333 85.333333 0 0 1-85.333333 85.333333H256a85.333333 85.333333 0 0 1-85.333333-85.333333V448a85.333333 85.333333 0 0 1 85.333333-85.333333h64z m42.666667 0h298.666666v-64a149.333333 149.333333 0 0 0-298.666666 0v64z m128 252.373333a64.021333 64.021333 0 1 1 42.666666 0V725.333333a21.333333 21.333333 0 0 1-42.666666 0v-110.293333zM256 405.333333a42.666667 42.666667 0 0 0-42.666667 42.666667v384a42.666667 42.666667 0 0 0 42.666667 42.666667h512a42.666667 42.666667 0 0 0 42.666667-42.666667V448a42.666667 42.666667 0 0 0-42.666667-42.666667H256z m256 170.666667a21.333333 21.333333 0 1 0 0-42.666667 21.333333 21.333333 0 0 0 0 42.666667z" p-id="1876" fill="#bfbfbf"></path></svg>