<?xml version="1.0" standalone="no"?><!DOCTYPE svg PUBLIC "-//W3C//DTD SVG 1.1//EN" "http://www.w3.org/Graphics/SVG/1.1/DTD/svg11.dtd"><svg t="1571120494254" class="icon" viewBox="0 0 1024 1024" version="1.1" xmlns="http://www.w3.org/2000/svg" p-id="4001" xmlns:xlink="http://www.w3.org/1999/xlink" width="18" height="18"><defs><style type="text/css"></style></defs><path d="M964.266667 750.933333h-82.602667v-81.92a38.570667 38.570667 0 0 0-77.482667 0V750.933333h-82.944a38.570667 38.570667 0 0 0 0 77.482667h82.602667v82.602667a38.570667 38.570667 0 1 0 77.482667 0V829.44h82.602666a38.570667 38.570667 0 0 0 0-77.482667z m0 0" p-id="4002" fill="#bfbfbf"></path><path d="M477.184 295.936m-222.549333 0a222.549333 222.549333 0 1 0 445.098666 0 222.549333 222.549333 0 1 0-445.098666 0Z" p-id="4003" fill="#bfbfbf"></path><path d="M570.026667 771.413333a211.626667 211.626667 0 0 1 112.64-186.368H262.485333C93.525333 664.576 20.821333 785.066667 20.821333 887.466667H604.16a210.944 210.944 0 0 1-34.133333-116.053334z" p-id="4004" fill="#bfbfbf"></path></svg>