<?xml version="1.0" standalone="no"?><!DOCTYPE svg PUBLIC "-//W3C//DTD SVG 1.1//EN" "http://www.w3.org/Graphics/SVG/1.1/DTD/svg11.dtd"><svg t="1578636524250" class="icon" viewBox="0 0 1024 1024" version="1.1" xmlns="http://www.w3.org/2000/svg" p-id="2652" width="16" height="16" xmlns:xlink="http://www.w3.org/1999/xlink"><defs><style type="text/css"></style></defs><path d="M512 51.2c119.9872 0 217.6 97.6128 217.6 217.6S631.9872 486.4 512 486.4s-217.6-97.6128-217.6-217.6S392.0128 51.2 512 51.2m0-51.2C363.5456 0 243.2 120.3456 243.2 268.8S363.5456 537.6 512 537.6s268.8-120.3456 268.8-268.8S660.4544 0 512 0z" p-id="2653" fill="#1296db"></path><path d="M25.6 998.4m-25.6 0a25.6 25.6 0 1 0 51.2 0 25.6 25.6 0 1 0-51.2 0Z" p-id="2654" fill="#1296db"></path><path d="M724.3776 560.9216m-25.6 0a25.6 25.6 0 1 0 51.2 0 25.6 25.6 0 1 0-51.2 0Z" p-id="2655" fill="#1296db"></path><path d="M512 487.0144V486.4C229.2224 486.4 0 715.6224 0 998.4h51.2c0-254.08 206.72-460.8 460.8-460.8v0.2048a459.264 459.264 0 0 1 201.1648 46.1312l22.4-46.0544A507.648 507.648 0 0 0 512 487.0144zM998.4 870.4H691.2c-14.08 0-25.6-11.52-25.6-25.6s11.52-25.6 25.6-25.6h307.2c14.08 0 25.6 11.52 25.6 25.6s-11.52 25.6-25.6 25.6z" p-id="2656" fill="#1296db"></path><path d="M819.2 998.4V691.2c0-14.08 11.52-25.6 25.6-25.6s25.6 11.52 25.6 25.6v307.2c0 14.08-11.52 25.6-25.6 25.6s-25.6-11.52-25.6-25.6z" p-id="2657" fill="#1296db"></path></svg>