<?xml version="1.0" standalone="no"?><!DOCTYPE svg PUBLIC "-//W3C//DTD SVG 1.1//EN" "http://www.w3.org/Graphics/SVG/1.1/DTD/svg11.dtd"><svg t="1578974426679" class="icon" viewBox="0 0 1024 1024" version="1.1" xmlns="http://www.w3.org/2000/svg" p-id="1913" width="16" height="16" xmlns:xlink="http://www.w3.org/1999/xlink"><defs><style type="text/css"></style></defs><path d="M512.512 41.472C250.368 41.472 36.864 254.976 36.864 517.12s213.504 475.648 475.648 475.648S988.16 779.264 988.16 517.12c-0.512-262.144-213.504-475.648-475.648-475.648z m0 885.76c-226.304 0-410.112-184.32-410.112-410.112 0-226.304 183.808-410.112 410.112-410.112 226.304 0 410.112 184.32 410.112 410.112 0 225.792-183.808 410.112-410.112 410.112z m32.768-182.784c0 17.92-14.336 32.256-32.256 32.256s-32.256-14.336-32.256-32.256 14.336-32.256 32.256-32.256c17.408-0.512 32.256 14.336 32.256 32.256z m77.312-406.016c27.136 25.088 40.96 54.784 40.96 90.112 0 20.48-4.608 39.424-14.336 56.32-9.728 17.408-28.16 38.4-56.32 62.976-18.944 16.896-31.232 28.672-36.864 36.864-5.632 7.68-10.24 16.896-12.8 27.136-3.072 10.24-4.608 26.624-4.608 49.664H483.328c0-7.68-0.512-13.312-0.512-17.408 0-22.528 3.072-41.984 9.728-58.368 4.608-12.288 12.288-24.576 22.528-37.376 7.68-9.216 21.504-22.528 41.472-39.936 19.968-17.408 32.768-31.744 38.912-41.984 6.144-10.24 8.704-22.016 8.704-34.304 0-22.528-8.704-41.984-26.112-58.88-17.408-16.896-38.912-25.088-64-25.088-24.576 0-45.056 7.68-61.44 23.04-16.384 15.36-27.136 39.424-32.256 71.68l-58.88-7.168c5.12-43.52 20.992-76.8 47.616-100.352 26.112-23.04 60.928-34.816 104.448-34.816 45.568 0.512 81.92 12.8 109.056 37.888z m0 0" p-id="1914" fill="#036eb8"></path></svg>