<?xml version="1.0" standalone="no"?><!DOCTYPE svg PUBLIC "-//W3C//DTD SVG 1.1//EN" "http://www.w3.org/Graphics/SVG/1.1/DTD/svg11.dtd"><svg t="1574910977146" class="icon" viewBox="0 0 1024 1024" version="1.1" xmlns="http://www.w3.org/2000/svg" p-id="1875" xmlns:xlink="http://www.w3.org/1999/xlink" width="18" height="18"><defs><style type="text/css"></style></defs><path d="M768 855.466667c-4.266667 0-10.666667-2.133333-14.933333-4.266667 0 0-81.066667-44.8-183.466667-100.266667-14.933333-8.533333-21.333333-27.733333-12.8-42.666666s27.733333-21.333333 42.666667-12.8c57.6 32 108.8 59.733333 142.933333 78.933333l74.666667-584.533333L234.666667 494.933333c23.466667 12.8 51.2 27.733333 85.333333 46.933334 0 0 2.133333 0 2.133333 2.133333 2.133333 2.133333 4.266667 2.133333 6.4 4.266667l12.8 6.4c14.933333 8.533333 19.2 29.866667 8.533334 42.666666-8.533333 14.933333-29.866667 19.2-42.666667 8.533334-2.133333-2.133333-4.266667-2.133333-6.4-4.266667-4.266667-2.133333-8.533333-4.266667-10.666667-6.4-78.933333-42.666667-134.4-74.666667-134.4-74.666667-10.666667-6.4-17.066667-17.066667-17.066666-27.733333s6.4-21.333333 17.066666-27.733333L842.666667 106.666667c10.666667-6.4 21.333333-4.266667 32 2.133333 8.533333 6.4 14.933333 17.066667 12.8 29.866667l-87.466667 689.066666c-2.133333 10.666667-8.533333 19.2-17.066667 23.466667-4.266667 2.133333-8.533333 4.266667-14.933333 4.266667z" p-id="1876" fill="#036EB8"></path><path d="M394.666667 921.6c-17.066667 0-32-14.933333-32-32v-202.666667c0-6.4 2.133333-14.933333 6.4-19.2L789.333333 160c10.666667-12.8 29.866667-14.933333 44.8-4.266667 12.8 10.666667 14.933333 29.866667 4.266667 44.8L426.666667 697.6v192c0 17.066667-14.933333 32-32 32z" p-id="1877" fill="#036EB8"></path></svg>