<?xml version="1.0" standalone="no"?><!DOCTYPE svg PUBLIC "-//W3C//DTD SVG 1.1//EN" "http://www.w3.org/Graphics/SVG/1.1/DTD/svg11.dtd"><svg t="1579511288814" class="icon" viewBox="0 0 1024 1024" version="1.1" xmlns="http://www.w3.org/2000/svg" p-id="3921" width="28" height="28" xmlns:xlink="http://www.w3.org/1999/xlink"><defs><style type="text/css"></style></defs><path d="M822.3957520507813 902.4279901367188L210.93182421875002 902.4279901367188c-32.377148437500004 0-58.71668994140625-26.340441503906252-58.71668994140625-58.71668994140625L152.21513427734374 629.8695845703124c0-8.94083818359375 7.248186035156249-16.18902421875 16.18902421875-16.18902421875s16.18902421875 7.248186035156249 16.18902421875 16.18902421875l0 213.84171562499998c0 14.52245361328125 11.815289648437501 26.338642382812502 26.338642382812502 26.338642382812502l611.4639278320312 0c14.523352734374999 0 26.338642382812502-11.816188769531252 26.338642382812502-26.338642382812502L848.7343944335937 629.8695845703124c0-8.94083818359375 7.248186035156249-16.18902421875 16.18902421875-16.18902421875s16.18902421875 7.248186035156249 16.18902421875 16.18902421875l0 213.84171562499998C881.1124419921875 876.0875486328125 854.7720004882813 902.4279901367188 822.3957520507813 902.4279901367188zM864.9234177734374 413.90620771484373c-8.94083818359375 0-16.18902421875-7.248186035156249-16.18902421875-16.18902421875l0-228.88581503906252c0-14.52245361328125-11.815289648437501-26.338642382812502-26.338642382812502-26.338642382812502L210.93182421875002 142.49272607421875c-14.523352734374999 0-26.338642382812502 11.815289648437501-26.338642382812502 26.338642382812502l0 228.88581503906252c0 8.94083818359375-7.248186035156249 16.18902421875-16.18902421875 16.18902421875s-16.18902421875-7.248186035156249-16.18902421875-16.18902421875l0-228.88581503906252c0-32.376249316406245 26.340441503906252-58.71668994140625 58.71668994140625-58.71668994140625l611.4639278320312 0c32.376249316406245 0 58.71668994140625 26.340441503906252 58.71668994140625 58.71668994140625l0 228.88581503906252C881.1124419921875 406.65802167968747 873.8651550781249 413.90620771484373 864.9234177734374 413.90620771484373zM906.7423642578125 524.844191796875L127.07987626953121 524.844191796875c-8.94083818359375 0-16.18902421875-7.248186035156249-16.18902421875-16.18902421875s7.248186035156249-16.18902421875 16.18902421875-16.18902421875l779.6615897460937 0c8.94083818359375 0 16.18902421875 7.248186035156249 16.18902421875 16.18902421875S915.6832024414064 524.844191796875 906.7423642578125 524.844191796875z" p-id="3922" fill="#515151"></path></svg>