<?xml version="1.0" standalone="no"?><!DOCTYPE svg PUBLIC "-//W3C//DTD SVG 1.1//EN" "http://www.w3.org/Graphics/SVG/1.1/DTD/svg11.dtd"><svg t="1571730748147" class="icon" viewBox="0 0 1024 1024" version="1.1" xmlns="http://www.w3.org/2000/svg" p-id="2521" xmlns:xlink="http://www.w3.org/1999/xlink" width="18" height="18"><defs><style type="text/css"></style></defs><path d="M264.19 661.97h483.95v37.23H264.19z" p-id="2522" fill="#bfbfbf"></path><path d="M305.93 885.33c-43.54 0-78.98-34.65-78.98-77.24V218.02c0-42.58 35.43-77.24 78.98-77.24H706.4c43.54 0 78.98 34.65 78.98 77.24v590.07c0.02 42.6-35.42 77.24-78.96 77.24H305.93zM292.3 178.31c-15.5 0-28.12 25.51-28.12 39.71V808.1c0 14.2 12.61 41.96 28.12 41.96h427.72c15.5 0 28.12-27.76 28.12-41.96V218.02c0-14.2-12.61-39.71-28.12-39.71H292.3z" p-id="2523" fill="#bfbfbf"></path><path d="M487.55 773.65c0 20.56 16.67 37.23 37.23 37.23s37.23-16.67 37.23-37.23c0-20.56-16.67-37.23-37.23-37.23s-37.23 16.67-37.23 37.23z" p-id="2524" fill="#bfbfbf"></path></svg>