<?xml version="1.0" standalone="no"?><!DOCTYPE svg PUBLIC "-//W3C//DTD SVG 1.1//EN" "http://www.w3.org/Graphics/SVG/1.1/DTD/svg11.dtd"><svg t="1574653182458" class="icon" viewBox="0 0 1024 1024" version="1.1" xmlns="http://www.w3.org/2000/svg" p-id="7345" xmlns:xlink="http://www.w3.org/1999/xlink" width="18" height="18"><defs><style type="text/css"></style></defs><path d="M760.7 751.9c-133.7 133.7-346.2 133.7-479.9 0s-133.7-346.2-1.1-478.8c133.7-133.7 346.2-133.7 479.9 0 11 11 25.2 9.9 35.1 0 11-11 9.9-25.2 0-35.1-150.1-150-397.7-150-547.8 0.1-150.1 150.1-150.1 397.7 0 547.8C397 936 644.6 936 794.7 785.9c9.9-9.9 11-24.1 1.1-34-11-10.9-25.2-9.8-35.1 0z" fill="#036EB8" p-id="7346"></path><path d="M877.3 424.1H707.6c-7.7 0-12.4 10.8-12.4 24.8 0 15.5 5.4 24.8 12.4 24.8h168.9c7.7 0 12.4-10.8 13.2-24.8 0-15.5-5.4-24.8-12.4-24.8zM584.3 425c13.1 0 24.1-11 24.1-24.1 0-13.1-11-24.1-24.1-24.1H406.8c-13.1 0-24.1 11-24.1 24.1v238.8c1.1 7.7 7.7 14.2 11 17.5 3.3 3.3 9.9 9.9 16.4 9.9h177.5c7.7-1.1 14.2-7.7 17.5-11 3.3-3.3 6.6-6.6 3.3-16.4 0-13.1-11-24.1-24.1-24.1H433.1V422.8l151.2 2.2zM850.2 558.7H670.7c-8.2 0-13.1 10.8-13.1 24.8 0 15.5 5.7 24.8 13.1 24.8h178.7c8.2 0 13.1-10.8 13.1-24.8 0-13.9-4.9-24.8-12.3-24.8z" fill="#036EB8" p-id="7347"></path></svg>