<?xml version="1.0" standalone="no"?><!DOCTYPE svg PUBLIC "-//W3C//DTD SVG 1.1//EN" "http://www.w3.org/Graphics/SVG/1.1/DTD/svg11.dtd"><svg t="1579510950391" class="icon" viewBox="0 0 1024 1024" version="1.1" xmlns="http://www.w3.org/2000/svg" p-id="2725" xmlns:xlink="http://www.w3.org/1999/xlink" width="18" height="18"><defs><style type="text/css"></style></defs><path d="M961.558387 711.369697H818.431114V568.242424c0-12.153535-9.69697-21.721212-21.591919-21.721212h-16.678788c-11.765657 0-21.591919 9.69697-21.591919 21.721212v143.127273H615.441215c-12.153535 0-21.850505 9.69697-21.850505 21.591919v16.678788c0 11.765657 9.69697 21.591919 21.850505 21.591919h143.127273v158.125253c0 12.153535 9.69697 21.721212 21.591919 21.721212h16.678788c11.765657 0 21.591919-9.69697 21.591919-21.721212V771.361616h143.127273c12.153535 0 21.721212-9.69697 21.721212-21.591919V733.090909c0-11.765657-9.69697-21.721212-21.721212-21.721212zM614.536165 460.670707c18.10101-27.539394 26.505051-60.89697 31.547475-93.090909 4.39596-27.79798 5.947475-55.983838 5.559596-84.169697-0.258586-29.090909-4.654545-58.440404-15.385859-85.462626-20.29899-51.2-62.577778-88.307071-114.165657-106.537374-25.341414-8.921212-51.717172-13.317172-78.610101-12.929293-32.969697 0.387879-67.490909 10.472727-96.581818 25.729293-46.157576 24.307071-79.127273 65.292929-92.961616 115.587879-6.981818 25.6-8.533333 51.587879-8.533333 77.963636 0 33.616162 3.620202 67.490909 11.377777 100.20202 6.723232 28.444444 15.90303 59.345455 37.236364 80.549495 15.644444 15.515152 33.357576 39.175758 24.177778 62.577778-2.585859 6.464646-7.240404 11.377778-12.541414 15.773737-9.179798 7.49899-19.652525 13.317172-29.99596 18.876768-31.547475 17.066667-64.258586 32.064646-95.676768 49.260606-23.919192 13.187879-47.709091 27.022222-69.688888 43.571717-15.644444 11.765657-30.642424 25.212121-41.632324 41.503031-8.921212 13.317172-14.868687 28.444444-16.161616 44.476767-1.163636 13.317172-1.680808 26.634343-2.585858 39.951516-1.034343 14.092929-2.844444 28.315152-2.844445 42.40808 0 13.187879 10.472727 24.048485 23.660606 24.69495 12.929293 0.646465 25.341414-8.016162 27.79798-20.945455 0.905051-4.783838 0.905051-9.826263 1.163636-14.610101 0.646465-9.309091 1.292929-18.618182 1.939394-27.79798 0.905051-12.8 1.163636-25.858586 2.585859-38.529292 1.551515-13.834343 10.472727-25.6 19.911111-35.29697 15.644444-15.90303 34.779798-28.573737 53.785859-40.080808 28.573737-17.454545 58.440404-32.969697 88.436363-47.838384 26.246465-13.058586 53.785859-26.117172 76.024243-45.511111 14.092929-12.282828 24.565657-27.151515 28.185858-45.640404 5.818182-29.608081-3.878788-57.406061-20.557575-81.713132-8.016162-11.636364-18.747475-21.333333-25.987879-33.357575-8.40404-14.092929-13.317172-30.125253-17.066667-46.028283-7.240404-30.771717-9.826263-62.189899-9.826263-93.737374 0-27.280808 3.10303-54.690909 14.222223-79.90303 9.955556-22.49697 26.117172-41.373737 46.545454-54.949495 24.824242-16.549495 56.759596-27.022222 86.626263-27.022222 29.866667-0.129293 60.121212 7.757576 85.979798 22.755555 21.074747 12.282828 38.658586 29.608081 50.294949 51.2 13.705051 25.341414 18.488889 54.820202 18.618182 83.264647 0.129293 28.185859-1.422222 56.242424-6.464646 84.040404-3.232323 17.454545-7.628283 34.909091-14.99798 51.2-2.844444 6.206061-6.076768 12.153535-10.214142 17.583838-4.008081 5.30101-8.791919 9.826263-12.929292 14.99798-10.472727 13.317172-19.911111 28.185859-25.470708 44.218182-5.430303 15.644444-6.206061 31.935354-3.232323 48.096969 0.387879 1.810101 2.715152 2.19798 4.266667 2.19798h43.571717c0.905051 0.258586 1.810101 0.129293 2.844444-0.129293 1.034343-0.129293 1.939394-0.646465 2.456566-1.163636 1.292929-1.034343 2.068687-2.585859 1.163637-4.266667-8.921212-15.644444-1.939394-33.228283 6.852525-47.191919 8.145455-12.541414 19.135354-22.367677 27.280808-34.779798z" p-id="2726" fill="#2c2c2c"></path><path d="M616.734145 150.884848c-29.090909-37.624242-72.145455-62.448485-118.173738-72.921212-54.561616-12.412121-110.933333-4.008081-159.676767 23.402021-40.727273 23.014141-71.757576 60.379798-87.143435 104.468686-9.309091 26.892929-12.153535 55.466667-12.541414 83.911112-0.387879 29.608081 1.810101 59.216162 7.111111 88.30707 4.525253 25.082828 10.60202 50.812121 21.721212 73.826263 5.30101 10.989899 12.024242 21.20404 20.428283 29.995959 8.662626 9.050505 17.19596 18.230303 22.238384 29.866667 5.042424 11.507071 5.430303 25.082828-3.361616 34.909091-8.921212 9.955556-21.721212 16.549495-33.228283 22.755556-26.117172 14.092929-53.010101 26.892929-79.385859 40.597979-25.6 13.317172-51.070707 27.539394-74.860606 43.959596-22.109091 15.385859-44.088889 32.840404-58.569697 55.983839-6.852525 10.989899-11.894949 23.272727-13.963636 35.943434-2.327273 14.092929-2.456566 28.573737-3.361616 42.666667-0.905051 14.739394-2.844444 29.478788-3.232323 44.347475-0.258586 11.377778 3.10303 21.850505 12.541414 28.832323 18.359596 13.705051 46.674747 3.10303 51.458586-19.39394 1.292929-5.947475 1.163636-12.282828 1.551515-18.359596 0.517172-8.016162 1.163636-15.90303 1.680808-23.919192 0.517172-6.723232 0.775758-13.575758 1.163636-20.298989 0.387879-7.757576 0.387879-16.161616 2.19798-23.660606 3.10303-12.541414 12.282828-22.626263 21.333333-31.288889 9.955556-9.567677 21.20404-17.713131 32.711111-25.212122 24.307071-15.90303 49.777778-29.99596 75.507071-43.313131 24.824242-12.8 50.682828-24.307071 74.731313-38.658586 21.462626-12.8 43.571717-28.961616 54.820202-51.975757 11.119192-23.143434 10.472727-50.424242 1.680808-74.214142-4.525253-12.153535-10.860606-23.789899-18.618181-34.262626-8.016162-10.860606-17.971717-20.29899-24.69495-32.064646-14.222222-24.824242-19.393939-55.59596-22.367677-83.652526-3.10303-28.961616-4.525253-59.474747-0.129293-88.30707 3.878788-26.246465 13.575758-51.587879 31.418182-71.628283 17.19596-19.135354 40.080808-32.323232 64.517172-39.951515 50.553535-15.644444 111.062626-3.490909 149.850505 33.228282 42.149495 39.951515 44.088889 99.814141 40.080808 153.987879-2.19798 29.220202-6.593939 59.991919-18.488889 87.014142-2.715152 6.206061-5.818182 12.412121-9.955555 17.842424-4.008081 5.430303-8.921212 10.084848-13.058586 15.256566-8.40404 10.343434-15.90303 21.591919-21.591919 33.745454-5.947475 12.670707-9.826263 25.858586-10.472728 39.822222-0.387879 7.111111 0.129293 14.092929 1.163637 21.074748 0.905051 6.076768 3.490909 10.084848 9.955555 10.731313 7.111111 0.646465 14.610101 0 21.721212 0 7.628283 0 15.256566 0.129293 22.884849 0 5.30101-0.129293 11.248485-1.939394 12.8-7.886869 1.551515-5.818182-3.490909-11.377778-4.137374-17.325252-1.163636-12.153535 5.430303-24.177778 12.024243-33.745455 7.628283-11.119192 17.454545-20.557576 24.953535-31.80606 14.610101-22.626263 23.143434-48.614141 28.573737-74.860607 5.947475-28.573737 8.791919-57.793939 9.309091-87.014141 1.163636-53.268687-7.49899-107.313131-41.115151-150.755556zM645.307882 299.959596c-0.517172 28.832323-3.10303 57.535354-8.921212 85.721212-5.171717 25.341414-13.187879 50.036364-27.280808 71.757576-14.222222 21.20404-35.814141 38.141414-38.658586 65.163636-0.646465 5.947475 0 12.024242 2.19798 17.583839 0 0.129293 0.258586 0.775758 0.646464 1.551515h-1.034343c-4.137374-0.129293-8.274747 0-12.412121 0h-20.816162c-2.19798 0-5.171717 0.517172-7.49899 0.129293 1.810101 0.129293 0.517172-1.680808 0.258586-3.878788-0.258586-1.939394-0.387879-3.878788-0.517172-5.818182-1.422222-27.668687 11.507071-53.139394 28.444445-74.214141 8.274747-10.343434 17.066667-19.264646 23.014141-31.418182 6.076768-12.670707 10.472727-25.987879 13.575758-39.69293 6.723232-28.444444 9.438384-57.664646 9.955555-86.755555 0.387879-27.280808-1.163636-54.690909-10.472727-80.549495-17.583838-49.131313-60.767677-81.842424-110.933333-93.090909-50.165657-11.248485-104.985859 0.646465-144.161616 34.521212-18.618182 16.032323-32.193939 37.107071-39.822223 60.509091-8.921212 26.763636-10.084848 55.337374-9.309091 83.135353 0.775758 29.090909 3.878788 58.311111 11.119192 86.49697 3.361616 13.058586 7.628283 25.987879 13.963637 37.882828 6.335354 11.765657 15.515152 21.20404 23.660606 31.418182 15.773737 19.652525 26.892929 44.864646 25.987879 70.335354-0.905051 25.987879-15.256566 46.028283-35.29697 61.543434-21.20404 16.290909-45.511111 27.539394-69.30101 39.434344-25.470707 12.670707-50.941414 25.729293-75.507071 40.210101-23.143434 13.575758-46.545455 28.056566-65.551515 47.191919-8.533333 8.662626-16.420202 18.618182-20.29899 30.383838-4.137374 12.670707-3.490909 27.410101-4.137374 40.59798-0.775758 14.480808-1.939394 28.832323-2.844444 43.313131-0.646465 10.989899-6.593939 20.169697-18.10101 21.721212-9.955556 1.422222-19.911111-5.430303-21.333334-15.644444-0.905051-6.076768 0.129293-12.670707 0.517172-18.747475 0.517172-7.369697 1.292929-14.868687 1.939394-22.238384 2.19798-27.151515 0.387879-54.820202 14.480808-79.256565 13.446465-23.272727 35.555556-40.59798 57.406061-55.59596 47.450505-32.581818 100.460606-55.466667 151.014141-82.618182 21.333333-11.507071 48.226263-25.6 48.226263-53.39798 0-11.894949-4.913131-23.272727-11.248485-33.098989-6.723232-10.214141-15.644444-18.10101-23.40202-27.410101-14.99798-18.359596-22.238384-41.890909-27.927273-64.646465-6.981818-27.79798-10.989899-56.113131-12.282828-84.686869-2.327273-52.492929 2.585859-106.149495 32.840404-150.755555 27.280808-40.210101 70.852525-66.19798 117.785858-77.446465 50.682828-12.024242 106.666667-2.844444 151.531314 23.272727 39.563636 23.014141 68.913131 59.733333 81.842424 103.822222 7.369697 27.410101 9.050505 55.208081 8.662626 83.264647z" p-id="2727" fill="#2c2c2c"></path></svg>